<?xml version="1.0" encoding="utf-8"?>
<!-- Generator: Adobe Illustrator 14.0.0, SVG Export Plug-In . SVG Version: 6.00 Build 43363)  -->
<!DOCTYPE svg PUBLIC "-//W3C//DTD SVG 1.1//EN" "http://www.w3.org/Graphics/SVG/1.1/DTD/svg11.dtd">
<svg version="1.1" id="Layer_1" xmlns="http://www.w3.org/2000/svg" xmlns:xlink="http://www.w3.org/1999/xlink" x="0px" y="0px"
	 width="380px" height="130px" viewBox="0 0 380 130" style="enable-background:new 0 0 380 130;" xml:space="preserve">
<g>
	<g>
		<path style="fill:#7BACD1;" d="M48.9,42c0.2,0.1,0.2,0.1,0.2,0.1c11.3-0.4,17.7,3.8,18.2,5.6l4.5-0.1l1.4-3c0.1-0.3,0-0.6,0-0.7
			c-1.4-1.5-12.7-4.7-26.3-4.7c-14.6,0-23.8,2.9-25.8,4.3c0,0-0.5,0.3-0.5,0.7c0,0.2,0.3,0.7,0.3,0.7l0.4,0.9
			c0.1,0.2,0.3,0.2,0.6,0.1c0,0,0.3-0.1,0.3-0.3c0.1-0.2-0.1-0.5-0.1-0.5c-0.3-0.6,0.1-0.7,0.1-0.7l0.8-0.4c0.4-0.1,0.4,0.1,0.6,0.4
			c0,0,0.2,0.4,0.3,0.5c0.2,0.1,0.9-0.2,2.9-0.7c0.1,0,0.2,0,0.5-0.1c0.2-0.1,0-0.7,0-0.7c-0.1-0.3-0.2-0.7,0.5-0.8l1.2-0.2
			c0.6-0.2,0.6,0.1,0.7,0.5c0,0,0,0.5,0.2,0.7c0.2,0.3,0.5-0.2,4.3-0.6c0,0,0.6,0,0.7-0.2c0.1-0.2,0-0.6,0-0.6
			c0-0.5-0.2-0.8,0.6-0.8l1.7-0.1c1.2-0.2,1,0.2,1.1,0.7c0,0,0,0.5,0.1,0.6c0.1,0.1,0.5,0.1,0.5,0.1c2.1-0.2,3.3-0.2,5.6-0.3
			c0,0,0.3,0,0.4-0.1c0.1-0.1,0.1-0.3,0.1-0.3c0-0.3-0.1-0.7,0.1-0.8c0.2-0.2,0.5-0.1,0.8-0.1l1.9,0c0.3,0,0.9-0.1,1.1,0.1
			c0.1,0.1,0.1,0.9,0.1,0.9S48.8,41.9,48.9,42z"/>
		<path style="fill:#7BACD1;" d="M47,23.8c-11,0-17.8,3.5-22.1,7.8c0,0-0.1,0.1-0.1,0.2c-0.1,0.2-0.1,0.5,0.3,0.4
			c9.4-3.9,19.7-1.5,23,2.2c0.1,0.2,0,0.2-0.1,0.2c-3.3,0-6.1-0.2-12.2,0.7c-3.3,0.5-6.3,0.9-8.7,1.6c-4.1,1.1-7,2.4-8.6,3.5
			c-0.6,0.3-0.6,0.5-0.8,0.8c-0.2,0.5-0.2,0.5-0.3,0.9c-0.2,0.7-0.3,1.1-0.3,1.4c-0.1,0.4,0.4,0.3,0.6,0c0.5-0.5,1.8-1.7,3.8-2.6
			c2-0.9,5.4-2,9-2.7c4.8-0.9,10.7-1.5,16.1-1.5c6.3,0,11.9,0.6,16.5,1.5c4.8,0.9,8.5,2.2,11,3.4c1.1,0.6,1.8,1.1,2.6,1.7
			c0.6,0.6,0.6,0.1,0.6-0.1c0,0-0.1-0.8-1.1-2.7C73,34.9,64.7,23.8,47,23.8"/>
		<path style="fill:#7BACD1;stroke:#7BACD1;stroke-width:0.25;stroke-linejoin:round;" d="M15,97.1c0,2.5,10.6,7.8,32.6,7.8
			c21.3,0,32.6-5.2,32.6-7.8l-0.1-3.9c0,0.1,0-0.3,0-0.2c0-0.7-1.2-0.8-4.6-0.9L75.4,90c0,0.2-0.7,0.7-1.2,1c-2.8,1.6-13.5,4-27,4
			c-15.5,0-26.4-3.2-28.1-5l0,3.3c5.1,3.6,20.9,6.9,36.8,5.2c0.5,0,0.6-0.1,1.1,0c0.1,0,0.6,0.4-0.3,0.7c-9.2,3-32,2.4-41.7-4.9
			L15,97.1"/>
		<g>
			<path style="fill:none;" d="M60.5,46.7h0.2C60.7,46.7,60.6,46.7,60.5,46.7C60.6,46.7,60.5,46.7,60.5,46.7z"/>
			<path style="fill:none;" d="M60.3,47.5C60.3,47.5,60.3,47.5,60.3,47.5l0-0.6l0,0l0,0c0,0,0,0,0,0V47.5z"/>
			<rect x="60.3" y="46.9" style="fill:#7BACD1;" width="0" height="0.7"/>
			<path style="fill:#7BACD1;" d="M54.4,46.4C54.4,46.4,54.5,46.4,54.4,46.4L54.4,46.4C54.4,46.4,54.4,46.4,54.4,46.4z"/>
			<rect x="60.3" y="47.5" style="fill:#7BACD1;" width="0" height="0"/>
		</g>
		<path style="fill:#7BACD1;" d="M60.6,45.1l-6,0c-0.3,0-0.4,0.1-0.4,0.4v0.7c0,0.3,0.1,0.5,0.5,0.5h1.9c0.2,0,0.2,0.1,0.2,0.1
			c0.1,0.2-0.3,0.3-0.4,0.4l-0.9,0.6c-0.1,0.1-0.2,0.2-0.2,0.6l0,42.9c0.1,0.8,1.3,0.8,2.6,0.8c1.1,0,2.4-0.1,2.5-0.8
			c0,0,0-40.8,0-44.4c0-0.2,0.1-0.2,0.1-0.2c0,0,0.2,0,0.2,0c0.3,0,0.4-0.1,0.4-0.4v-0.7C61.1,45.3,60.9,45.1,60.6,45.1z"/>
		<path style="fill:#7BACD1;stroke:#7BACD1;stroke-width:0.25;stroke-linejoin:round;" d="M50.8,75l0.1-0.3h0.4l0-0.3H43l0,0.3h0.4
			l0.1,0.3l0.5,1c0,0,0.1,0.1,0.2,0.1c0.1,0,0.3,0.1,0.4,0.1c2.2,0,1.7,0,2.1,0c0.2,0,0.4,0,0.5,0.1c0.1,0.1,0.1,0.3-0.2,0.5
			c-0.7,0.5-1.9,1.3-2.5,1.6c-0.1,0-0.3,0.2-0.3,0.3c-0.1,0.2-0.1,0.3-0.1,0.3v8.1l-0.7,0.3c0,0-0.2,1.6,0,1.8c0.2,0.2,7,0.2,7.3,0
			c0.2-0.1,0-1.8,0-1.8l-0.7-0.2V76.4L50.8,75z"/>
		<path style="fill:#7BACD1;" d="M72.3,47.5l-6,0c-0.3,0-0.4,0.1-0.4,0.4v0.7c0,0.3,0.1,0.5,0.5,0.5h1.9c0.2,0,0.2,0.1,0.2,0.1
			c0.1,0.2-0.3,0.3-0.4,0.4l-0.9,0.6c-0.1,0.1-0.2,0.2-0.2,0.6l0,38.7c0.1,0.8,1.3,0.8,2.6,0.8c1.1,0,2.4-0.1,2.5-0.8
			c0,0,0-36.6,0-40.2c0-0.2,0.1-0.2,0.1-0.2c0,0,0.2,0,0.2,0c0.3,0,0.4-0.1,0.4-0.4v-0.7C72.7,47.6,72.5,47.5,72.3,47.5z"/>
		<path style="fill:#7BACD1;" d="M39.5,45.1l-6,0c-0.3,0-0.4,0.1-0.4,0.4v0.7c0,0.3,0.1,0.5,0.5,0.5h1.9c0.2,0,0.2,0.1,0.2,0.1
			c0.1,0.2-0.3,0.3-0.4,0.4l-0.9,0.6C34.1,47.9,34,48,34,48.4l0,42.9c0.1,0.7,1.3,0.8,2.6,0.8c1.1,0,2.4-0.1,2.5-0.8
			c0,0,0-40.8,0-44.4c0-0.2,0.1-0.2,0.1-0.2c0,0,0.2,0,0.2,0c0.3,0,0.4-0.1,0.4-0.4v-0.7C39.9,45.3,39.7,45.1,39.5,45.1z"/>
		<path style="fill:#7BACD1;" d="M27.8,47.6l-6,0c-0.3,0-0.4,0.2-0.4,0.4v0.7c0,0.3,0.1,0.5,0.5,0.5l1.9,0c0.2,0,0.2,0.1,0.2,0.1
			c0.1,0.2-0.3,0.3-0.4,0.4l-0.9,0.6c-0.1,0.1-0.2,0.2-0.2,0.6l0,38.7c0.1,0.8,1.3,0.8,2.6,0.8c1.1,0,2.4-0.1,2.5-0.8
			c0,0,0-36.6,0-40.2c0-0.2,0.1-0.2,0.1-0.2c0,0,0.2,0,0.2,0c0.3,0,0.4-0.1,0.4-0.4V48C28.2,47.7,28,47.6,27.8,47.6z"/>
	</g>
	<line style="fill:none;stroke:#7BACD1;stroke-width:0.8;stroke-miterlimit:10;" x1="105.5" y1="15" x2="105.5" y2="111"/>
	<g>
		<path style="fill:#7BACD1;" d="M145.9,36.2h-0.8c-0.2-1.7-0.6-2.1-1.7-2.1h-2v7.1c0,1.5,0.2,1.7,1.9,1.7v0.8h-6.7V43
			c1.7,0,1.9-0.2,1.9-1.7v-7.1h-2.1c-0.8,0-1.4,0.3-1.6,2.1H134l0.3-3.5h0.7c0.1,0.1,0.1,0.2,0.3,0.2c0.1,0,0.3,0.1,0.6,0.1h7.8
			c0.8,0,0.9,0,1.1-0.3h0.7L145.9,36.2z"/>
		<path style="fill:#7BACD1;" d="M159.6,37.7v-2.2c0-1.4-0.3-1.7-1.5-1.7V33h5.9v0.8c-1.3,0-1.5,0.3-1.5,1.5v5.9
			c0,1.2,0.1,1.7,1.5,1.7v0.8h-5.9V43c1.1-0.1,1.5-0.3,1.5-1.7v-2.5h-5.2v2.6c0,1.1,0.1,1.6,1.5,1.6v0.8H150V43
			c1.2-0.1,1.5-0.3,1.5-1.7v-5.8c0-1.4-0.4-1.7-1.5-1.7V33h5.9v0.8c-1.2,0.1-1.5,0.2-1.5,1.6v2.2H159.6z"/>
	</g>
	<g>
		<path style="fill:#7BACD1;" d="M178.6,33l0.2,2.6h-0.8c-0.2-1.2-0.4-1.5-1.3-1.5h-3.4v3.8h2.2c1.2,0,1.6-0.3,1.6-1.3h0.8v3.6H177
			c0-1-0.3-1.2-1.5-1.2h-2.3v2.8c0,0.9,0.1,1,1,1h2c1.5,0,1.9-0.7,2.2-1.8h0.8l-0.2,2.9h-10.6V43c1.6,0,1.9-0.4,1.9-1.6v-5.9
			c0-1.5-0.5-1.6-1.7-1.6V33H178.6z"/>
		<path style="fill:#7BACD1;" d="M203.5,33v0.8c-1.5,0-1.7,0.3-1.7,1.6v3.8c0,3.5-2.1,4.8-5.1,4.8c-3.2,0-5.2-1.4-5.2-4v-4.6
			c0-1.2-0.2-1.7-1.5-1.7V33h5.9v0.8c-1.2,0-1.5,0.4-1.5,1.5V40c0,1.6,0.9,2.6,3,2.6c2.3,0,3.2-1.2,3.2-3.4v-3.6
			c0-1.3-0.3-1.7-1.7-1.7V33H203.5z"/>
	</g>
	<g>
		<path style="fill:#7BACD1;" d="M220.9,33v0.8c-1.2,0-1.6,0.3-1.6,1.6v8.5H218l-7.9-8.3v5.7c0,1.1,0.2,1.6,1.6,1.6v0.8h-4.5V43
			c1.2,0,1.6-0.3,1.6-1.7v-7c-0.2-0.2-0.6-0.4-1.5-0.4V33h4.1l6.6,7v-4.6c0-1.1-0.2-1.5-1.6-1.5V33H220.9z"/>
		<path style="fill:#7BACD1;" d="M225,43.8V43c1.2,0,1.5-0.4,1.5-1.6v-5.9c0-1.2-0.2-1.7-1.5-1.7V33h6v0.8c-1.4,0-1.6,0.4-1.6,1.7
			v5.8c0,1.1,0.1,1.7,1.6,1.7v0.8H225z"/>
	</g>
	<g>
		<path style="fill:#7BACD1;" d="M247.3,33.9c-1.3,0-1.6,0.2-2.3,1.9l-3.8,8.3h-1.3l-3.6-8c-0.9-2-1.1-2.2-2.3-2.2V33h6.5v0.8
			c-1.3,0-1.8,0.2-1.8,0.7c0,0.2,0.1,0.6,0.3,1.1l2.3,5l2-4.4c0.5-1.1,0.6-1.4,0.6-1.7c0-0.4-0.5-0.7-1.5-0.6V33h4.8V33.9z"/>
		<path style="fill:#7BACD1;" d="M259.5,33l0.2,2.6h-0.8c-0.2-1.2-0.4-1.5-1.3-1.5h-3.4v3.8h2.2c1.2,0,1.6-0.3,1.6-1.3h0.8v3.6H258
			c0-1-0.3-1.2-1.5-1.2h-2.3v2.8c0,0.9,0.1,1,1,1h2c1.5,0,1.9-0.7,2.2-1.8h0.8l-0.2,2.9h-10.6V43c1.6,0,1.9-0.4,1.9-1.6v-5.9
			c0-1.5-0.5-1.6-1.7-1.6V33H259.5z"/>
	</g>
	<path style="fill:#7BACD1;" d="M278.8,43.9h-2.1c-1.6,0-2.5-0.3-3.3-1c-1.1-1.1-2.2-3-3-3.7h-0.9v2.3c0,1.3,0.5,1.4,1.9,1.4v0.8
		h-6.6V43c1.5,0,1.8-0.3,1.8-1.5v-6c0-1.3-0.3-1.6-1.8-1.6V33c1.1-0.1,1.8-0.1,3.2-0.2c1.1-0.1,2.2-0.1,2.8-0.1
		c2.8,0,5.3,0.5,5.3,3.1c0,1.3-0.8,2.3-2.5,2.8c1.1,0.9,1.7,2.4,2.9,3.5c0.8,0.8,1.5,0.9,2.4,0.9V43.9z M269.5,38.4
		c2.5,0,3.4-0.7,3.4-2.5c0-1.4-0.9-2.3-2.6-2.3h-0.9V38.4z"/>
	<g>
		<path style="fill:#7BACD1;" d="M281.9,40.5c0.5,1.7,1.6,2.6,3.1,2.6c1.1,0,1.8-0.6,1.8-1.5c0-2.3-5.5-2.5-5.5-5.9
			c0-1.2,0.8-3,3.7-3c1.3,0,2.2,0.3,2.7,0.3c0.2,0,0.3-0.1,0.4-0.2h0.6l0.3,3.1h-0.8c-0.5-1.5-1.7-2.3-2.9-2.3
			c-0.9,0-1.5,0.4-1.5,1.1c0,1.8,5.8,2.3,5.8,6c0,2-1.6,3.3-4.1,3.3c-1.2,0-2.5-0.4-2.8-0.4c-0.3,0-0.4,0.2-0.4,0.3h-0.6l-0.5-3.4
			H281.9z"/>
		<path style="fill:#7BACD1;" d="M293.6,43.8V43c1.2,0,1.5-0.4,1.5-1.6v-5.9c0-1.2-0.2-1.7-1.5-1.7V33h6v0.8c-1.4,0-1.6,0.4-1.6,1.7
			v5.8c0,1.1,0.1,1.7,1.6,1.7v0.8H293.6z"/>
		<path style="fill:#7BACD1;" d="M315.2,36.2h-0.8c-0.2-1.7-0.6-2.1-1.7-2.1h-2v7.1c0,1.5,0.2,1.7,1.9,1.7v0.8h-6.7V43
			c1.7,0,1.9-0.2,1.9-1.7v-7.1h-2.1c-0.8,0-1.4,0.3-1.6,2.1h-0.8l0.3-3.5h0.7c0.1,0.1,0.1,0.2,0.3,0.2c0.1,0,0.3,0.1,0.6,0.1h7.8
			c0.8,0,0.9,0,1.1-0.3h0.7L315.2,36.2z"/>
	</g>
	<path style="fill:#7BACD1;" d="M330.9,33.9c-1.2,0-1.5,0.2-2.4,1.7l-2.5,3.9v1.9c0,1.2,0.2,1.6,1.7,1.6v0.8h-6.4V43
		c1.5,0,1.7-0.4,1.7-1.7v-1.8l-3.2-4.3c-0.8-1.1-1.2-1.4-2.1-1.4V33h6.2v0.8c-0.8,0-1.2,0.1-1.2,0.4c0,0.1,0.1,0.4,0.3,0.6l2.4,3.3
		l1.7-2.7c0.3-0.5,0.5-0.8,0.5-1c0-0.4-0.3-0.6-1.1-0.6V33h4.4V33.9z"/>
	<g>
		<path style="fill:#7BACD1;" d="M139.7,61c1.3,0,2.1,1.1,2.1,2.9c0,3.4-3.2,5.6-5.3,5.6c-1.3,0-2.2-1.2-2.2-2.8
			C134.4,63.8,137,61,139.7,61z M137.7,68.7c0.8,0,1.8-1.9,1.8-4.4c0-1.3-0.5-2.4-1.1-2.4c-0.8,0-1.8,2-1.8,4.4
			C136.7,67.6,137.1,68.7,137.7,68.7z"/>
		<path style="fill:#7BACD1;" d="M146.7,68.6c-0.3,1.5-0.7,2.8-2,4c-0.8,0.8-1.8,1.3-3.1,1.3c-1.2,0-2.1-0.5-2.1-1.2
			c0-0.5,0.5-1,1.1-1c1.2,0,1.2,1.5,2.1,1.5c0.7,0,1.2-0.8,1.4-2.2l1.5-8.9h-1.5l0.1-0.5c0.5,0,1.2-0.2,1.6-0.4
			c0.4-2.8,2-5.2,4.7-5.2c1.2,0,1.9,0.4,1.9,1.1c0,0.6-0.5,1-1.1,1c-1.1,0-1.5-1.4-2.2-1.4c-0.5,0-0.6,0.7-0.9,2.4l-0.3,2h1.4
			l-0.2,0.9h-1.4L146.7,68.6z"/>
	</g>
	<g>
		<path style="fill:#7BACD1;" d="M173.4,58.5v0.8c-1.2,0-1.6,0.3-1.6,1.6v8.5h-1.4l-7.8-8.3v5.7c0,1.1,0.2,1.6,1.6,1.6v0.8h-4.5
			v-0.8c1.2,0,1.6-0.3,1.6-1.7v-7c-0.2-0.2-0.6-0.4-1.5-0.4v-0.8h4.1l6.6,7v-4.6c0-1.1-0.2-1.5-1.6-1.5v-0.8H173.4z"/>
		<path style="fill:#7BACD1;" d="M182.8,69.6c-4.9,0-6.4-3.2-6.4-5.6c0-2.9,2.1-5.7,6.8-5.7c4.8,0,6.3,3.2,6.3,5.5
			C189.5,66.1,188,69.6,182.8,69.6z M182.7,59.1c-1.6,0-3.2,1.1-3.2,4.1c0,3.3,1.6,5.5,3.8,5.5c1.7,0,3.1-1.3,3.1-4.1
			C186.4,61.4,184.9,59.1,182.7,59.1z"/>
	</g>
	<g>
		<path style="fill:#7BACD1;" d="M206.7,69.4h-2.1c-1.6,0-2.5-0.3-3.3-1c-1.1-1.1-2.1-3-3-3.7h-0.9V67c0,1.3,0.5,1.4,1.9,1.4v0.8
			h-6.6v-0.8c1.5,0,1.8-0.3,1.8-1.5v-6c0-1.3-0.3-1.6-1.8-1.6v-0.8c1.1-0.1,1.8-0.1,3.2-0.2c1.1-0.1,2.2-0.1,2.8-0.1
			c2.8,0,5.3,0.5,5.3,3.1c0,1.3-0.8,2.3-2.5,2.8c1.1,0.9,1.8,2.4,2.9,3.5c0.8,0.8,1.5,0.9,2.4,0.9V69.4z M197.4,63.9
			c2.5,0,3.4-0.7,3.4-2.5c0-1.4-0.9-2.3-2.6-2.3h-0.8V63.9z"/>
		<path style="fill:#7BACD1;" d="M220.4,61.7h-0.8c-0.2-1.7-0.6-2.1-1.7-2.1h-2v7.1c0,1.5,0.2,1.7,1.9,1.7v0.8h-6.7v-0.8
			c1.7,0,1.9-0.2,1.9-1.7v-7.1h-2.1c-0.8,0-1.4,0.3-1.6,2.1h-0.8l0.3-3.5h0.7c0.1,0.1,0.1,0.2,0.3,0.2c0.1,0,0.3,0,0.6,0h7.8
			c0.8,0,0.9,0,1.1-0.3h0.7L220.4,61.7z"/>
	</g>
	<g>
		<path style="fill:#7BACD1;" d="M233.8,63.2v-2.2c0-1.4-0.3-1.7-1.5-1.7v-0.8h5.9v0.8c-1.3,0-1.5,0.3-1.5,1.5v5.9
			c0,1.2,0.1,1.7,1.5,1.7v0.8h-5.9v-0.8c1.1-0.1,1.5-0.3,1.5-1.7v-2.5h-5.2v2.6c0,1.1,0.1,1.6,1.5,1.6v0.8h-5.9v-0.8
			c1.2-0.1,1.5-0.3,1.5-1.7V61c0-1.4-0.4-1.7-1.5-1.7v-0.8h5.9v0.8c-1.2,0.1-1.5,0.2-1.5,1.6v2.2H233.8z"/>
		<path style="fill:#7BACD1;" d="M261.3,65.9c-0.1,1-0.6,2.3-1.1,3.4l0,0.1c-0.2-0.1-0.3-0.1-0.5-0.1c-0.2,0-0.3,0-0.6,0
			c-0.5,0-1,0.1-1.5,0.1c-0.5,0.1-1.1,0.1-1.7,0.1c-2.3,0-3.9-0.8-4.9-1.8c-1-1.1-1.4-2.4-1.4-3.6c0-1.7,0.7-3.2,1.9-4.2
			c1.2-1,2.9-1.6,4.9-1.6c1.9,0,2.9,0.5,3.3,0.5c0.2,0,0.2-0.1,0.3-0.2h0.6l0.2,3.6H260c-0.2-0.9-0.6-1.6-1.2-2.1
			c-0.6-0.5-1.4-0.8-2.2-0.8c-2.3,0-3.9,1.9-3.9,4.6c0,2.8,1.6,4.7,4.1,4.7c1.6,0,2.9-0.9,3.7-2.7H261.3z"/>
	</g>
	<g>
		<path style="fill:#7BACD1;" d="M276.6,69.3h-6.3v-0.8c1.2,0,1.6-0.1,1.6-0.6c0-0.2-0.1-0.6-0.4-1.3l-0.4-1h-3.8l-0.3,0.9
			c-0.2,0.7-0.4,1.2-0.4,1.3c0,0.5,0.6,0.6,1.5,0.6v0.8h-4.5v-0.8c1.3,0,1.4-0.3,2.1-2.1l2.7-7.7l-0.2-0.4h3.1l3.2,8.2
			c0.6,1.6,1,2,2,2V69.3z M269.1,60.4l-1.4,4.1h3L269.1,60.4z"/>
		<path style="fill:#7BACD1;" d="M293.8,69.4h-2.1c-1.6,0-2.5-0.3-3.3-1c-1.1-1.1-2.1-3-3-3.7h-0.9V67c0,1.3,0.5,1.4,1.9,1.4v0.8
			h-6.6v-0.8c1.5,0,1.8-0.3,1.8-1.5v-6c0-1.3-0.3-1.6-1.8-1.6v-0.8c1.1-0.1,1.8-0.1,3.2-0.2c1.1-0.1,2.2-0.1,2.8-0.1
			c2.8,0,5.3,0.5,5.3,3.1c0,1.3-0.9,2.3-2.5,2.8c1.1,0.9,1.7,2.4,2.9,3.5c0.8,0.8,1.5,0.9,2.4,0.9V69.4z M284.5,63.9
			c2.5,0,3.4-0.7,3.4-2.5c0-1.4-0.9-2.3-2.6-2.3h-0.8V63.9z"/>
	</g>
	<g>
		<path style="fill:#7BACD1;" d="M301.9,69.6c-4.9,0-6.4-3.2-6.4-5.6c0-2.9,2.1-5.7,6.8-5.7c4.8,0,6.3,3.2,6.3,5.5
			C308.6,66.1,307.2,69.6,301.9,69.6z M301.8,59.1c-1.6,0-3.2,1.1-3.2,4.1c0,3.3,1.6,5.5,3.8,5.5c1.7,0,3.1-1.3,3.1-4.1
			C305.5,61.4,304,59.1,301.8,59.1z"/>
		<path style="fill:#7BACD1;" d="M318.5,58.5v0.8c-1.5,0-1.8,0.3-1.8,1.6v6c0,1.1,0.1,1.2,1.3,1.2h1.3c1.1,0,1.4,0,2.9-2.1h0.8
			l-1.3,3.1h-9.6v-0.8c1.5,0,1.7-0.4,1.7-1.7V61c0-1.2-0.2-1.6-1.7-1.6v-0.8H318.5z"/>
	</g>
	<g>
		<path style="fill:#7BACD1;" d="M326.4,69.3v-0.8c1.2,0,1.5-0.4,1.5-1.6V61c0-1.2-0.2-1.7-1.5-1.7v-0.8h6v0.8
			c-1.4,0-1.6,0.4-1.6,1.7v5.8c0,1.1,0.1,1.7,1.6,1.7v0.8H326.4z"/>
		<path style="fill:#7BACD1;" d="M350.4,58.5v0.8c-1.2,0-1.6,0.3-1.6,1.6v8.5h-1.4l-7.8-8.3v5.7c0,1.1,0.2,1.6,1.6,1.6v0.8h-4.5
			v-0.8c1.2,0,1.6-0.3,1.6-1.7v-7c-0.2-0.2-0.6-0.4-1.5-0.4v-0.8h4.1l6.6,7v-4.6c0-1.1-0.2-1.5-1.6-1.5v-0.8H350.4z"/>
	</g>
	<path style="fill:#7BACD1;" d="M365,69.3h-6.3v-0.8c1.2,0,1.6-0.1,1.6-0.6c0-0.2-0.1-0.6-0.4-1.3l-0.4-1h-3.8l-0.3,0.9
		c-0.2,0.7-0.4,1.2-0.4,1.3c0,0.5,0.6,0.6,1.5,0.6v0.8h-4.5v-0.8c1.3,0,1.4-0.3,2.1-2.1l2.7-7.7l-0.2-0.4h3.1l3.2,8.2
		c0.6,1.6,1,2,2,2V69.3z M357.6,60.4l-1.4,4.1h3L357.6,60.4z"/>
	<g>
		<path style="fill:#7BACD1;" d="M140.6,92.9c-0.1,0.4-0.1,0.7,0.1,0.7s1-0.7,1.4-1.2v0.7c-1,1.1-2.1,1.9-2.8,1.9
			c-0.5,0-0.8-0.4-0.8-1.2c0-0.4,0-0.5,0.1-1.2h0c-1.2,1.3-2.4,2.4-3,2.4c-0.5,0-1.4-0.6-1.4-1.9c0-1.3,0.5-2.9,2.2-4.6
			c1.6-1.6,3-2,5.6-2L140.6,92.9z M139.5,87.7c-1,0-1.7,0.3-2.3,0.9c-0.7,0.7-1.2,2.1-1.2,3.2c0,0.8,0.3,1.4,0.8,1.4
			c0.5,0,1.1-0.6,1.9-1.4L139.5,87.7z"/>
		<path style="fill:#7BACD1;" d="M146.9,93.2c-0.1,0.4,0.1,0.6,0.4,0.6c0.3,0,0.9-0.5,1.5-1.2l0.4,0.4c-1,1.2-2.4,2-3.3,2
			c-0.7,0-1.2-0.6-1-1.7l1.2-5.7h-1l0.1-0.4c1.3-0.4,2.4-1.5,3.6-3.1h0.5c-0.4,0.8-0.6,1.6-0.9,2.6h1.6l-0.2,0.9H148L146.9,93.2z"/>
	</g>
	<g>
		<path style="fill:#7BACD1;" d="M171.6,91.4c-0.1,1-0.6,2.3-1.1,3.4l-0.1,0.1c-0.2-0.1-0.3-0.1-0.5-0.1c-0.2,0-0.3,0-0.6,0
			c-0.5,0-1,0.1-1.5,0.1c-0.5,0.1-1.1,0.1-1.7,0.1c-2.3,0-3.9-0.8-4.9-1.8c-1-1.1-1.4-2.4-1.4-3.6c0-1.7,0.7-3.2,1.9-4.2
			c1.2-1,2.9-1.6,4.9-1.6c1.9,0,2.9,0.5,3.3,0.5c0.2,0,0.2-0.1,0.3-0.2h0.6l0.2,3.6h-0.8c-0.2-0.9-0.6-1.6-1.2-2.1
			c-0.6-0.5-1.4-0.8-2.2-0.8c-2.3,0-3.9,1.9-3.9,4.6c0,2.8,1.6,4.7,4.1,4.7c1.6,0,2.9-0.9,3.7-2.7H171.6z"/>
		<path style="fill:#7BACD1;" d="M185.2,88.7v-2.2c0-1.4-0.3-1.7-1.5-1.7V84h5.9v0.8c-1.3,0-1.5,0.3-1.5,1.5v5.9
			c0,1.2,0.1,1.7,1.5,1.7v0.8h-5.9V94c1.1-0.1,1.5-0.3,1.5-1.7v-2.5H180v2.6c0,1.1,0.1,1.6,1.5,1.6v0.8h-5.9V94
			c1.2-0.1,1.5-0.3,1.5-1.7v-5.8c0-1.4-0.4-1.7-1.5-1.7V84h5.9v0.8c-1.2,0.1-1.5,0.2-1.5,1.6v2.2H185.2z"/>
	</g>
	<g>
		<path style="fill:#7BACD1;" d="M205.3,94.8H199V94c1.2,0,1.6-0.1,1.6-0.6c0-0.2-0.1-0.6-0.4-1.3l-0.4-1H196l-0.3,0.9
			c-0.2,0.7-0.4,1.2-0.4,1.3c0,0.5,0.6,0.6,1.5,0.6v0.8h-4.5V94c1.3,0,1.4-0.3,2.1-2.1l2.7-7.7l-0.2-0.4h3.1l3.2,8.2
			c0.6,1.6,1,2,2,2V94.8z M197.8,85.9l-1.4,4.1h3L197.8,85.9z"/>
		<path style="fill:#7BACD1;" d="M209.9,87c0-1.8-0.1-2.1-1.5-2.1V84c1-0.1,2.2-0.1,3.4-0.2c1.2-0.1,2.1-0.1,2.4-0.1
			c2.9,0,4.9,1.2,4.9,3.4c0,1.5-1,3.4-4.3,3.4c-0.6,0-1.4-0.1-1.9-0.2v2.3c0,1,0.3,1.4,2,1.4v0.8h-6.4V94c1.2,0,1.5-0.3,1.5-1.7V87z
			 M212.8,89.5c0.3,0.1,0.5,0.1,0.8,0.1c1.4,0,2.3-1,2.3-2.5c0-1.5-0.8-2.4-2.2-2.4c-0.3,0-0.7,0-1,0.1V89.5z"/>
	</g>
	<g>
		<path style="fill:#7BACD1;" d="M232.5,84l0.2,2.6h-0.8c-0.2-1.2-0.4-1.5-1.3-1.5h-3.4v3.8h2.2c1.2,0,1.6-0.3,1.6-1.3h0.8v3.6h-0.8
			c0-1-0.3-1.2-1.5-1.2h-2.3v2.8c0,0.9,0.1,1,1,1h2c1.5,0,1.9-0.7,2.2-1.8h0.8l-0.2,2.9h-10.6V94c1.6,0,1.9-0.4,1.9-1.6v-5.9
			c0-1.5-0.5-1.6-1.7-1.6V84H232.5z"/>
		<path style="fill:#7BACD1;" d="M243.8,84v0.8c-1.5,0-1.8,0.3-1.8,1.6v6c0,1.1,0.1,1.2,1.3,1.2h1.3c1.1,0,1.4,0,2.9-2.1h0.8
			l-1.3,3.1h-9.6V94c1.5,0,1.7-0.4,1.7-1.7v-5.8c0-1.2-0.2-1.6-1.7-1.6V84H243.8z"/>
	</g>
	<g>
		<path style="fill:#7BACD1;" d="M268.2,88.7v-2.2c0-1.4-0.3-1.7-1.5-1.7V84h5.9v0.8c-1.3,0-1.5,0.3-1.5,1.5v5.9
			c0,1.2,0.1,1.7,1.5,1.7v0.8h-5.9V94c1.1-0.1,1.5-0.3,1.5-1.7v-2.5H263v2.6c0,1.1,0.1,1.6,1.5,1.6v0.8h-5.9V94
			c1.2-0.1,1.5-0.3,1.5-1.7v-5.8c0-1.4-0.4-1.7-1.5-1.7V84h5.9v0.8c-1.2,0.1-1.5,0.2-1.5,1.6v2.2H268.2z"/>
		<path style="fill:#7BACD1;" d="M277.3,94.8V94c1.2,0,1.5-0.4,1.5-1.6v-5.9c0-1.2-0.2-1.7-1.5-1.7V84h6v0.8c-1.4,0-1.6,0.5-1.6,1.7
			v5.8c0,1.1,0.1,1.7,1.6,1.7v0.8H277.3z"/>
	</g>
	<g>
		<path style="fill:#7BACD1;" d="M293.7,84v0.8c-1.5,0-1.8,0.3-1.8,1.6v6c0,1.1,0.1,1.2,1.3,1.2h1.3c1.1,0,1.4,0,2.9-2.1h0.8
			l-1.3,3.1h-9.6V94c1.5,0,1.7-0.4,1.7-1.7v-5.8c0-1.2-0.2-1.6-1.7-1.6V84H293.7z"/>
		<path style="fill:#7BACD1;" d="M306.6,84v0.8c-1.5,0-1.8,0.3-1.8,1.6v6c0,1.1,0.1,1.2,1.3,1.2h1.3c1.1,0,1.4,0,2.9-2.1h0.8
			l-1.3,3.1h-9.6V94c1.5,0,1.7-0.4,1.7-1.7v-5.8c0-1.2-0.2-1.6-1.7-1.6V84H306.6z"/>
	</g>
</g>
</svg>
